<svg xmlns="http://www.w3.org/2000/svg" xmlns:xlink="http://www.w3.org/1999/xlink" version="1.1" x="0px" y="0px" viewBox="0 0 100 125" enable-background="new 0 0 100 100" xml:space="preserve" alt = "Community by Oksana Latysheva from the Noun Project" fill = "#29507d" height = "100%" width = "100%"><g display="none"><rect x="-420.877" y="-277.172" display="inline" fill="#000000" width="1370.931" height="1263.231"/></g><g display="none" opacity="0.31"><g display="inline"><path d="M85.823,8.81c-0.582-0.403-1.362-0.345-1.879,0.138c-4.544,4.25-9.019,2.159-14.197-0.263    c-5.387-2.52-11.491-5.375-17.518,0.263c-0.303,0.283-0.475,0.68-0.475,1.095v0.508v16.543v10.683H25.241    c-6.457,0-11.71,5.253-11.71,11.71v16.82c0,3.107,2.283,5.691,5.26,6.163v15.607c0,3.44,2.799,6.24,6.24,6.24h8.02    c3.441,0,6.24-2.799,6.24-6.24V50.885h12.057c0.137,0,0.27-0.015,0.406-0.021v8.52c0,0.829,0.671,1.5,1.5,1.5s1.5-0.671,1.5-1.5    v-9.094c3.979-1.408,6.841-5.198,6.841-9.653v-2.862h-6.841v-9.992c4.382-3.683,8.723-1.67,13.722,0.668    c3.089,1.445,6.415,3,9.827,3c2.536,0,5.121-0.86,7.691-3.264c0.353-0.33,0.524-0.809,0.463-1.288    c-0.062-0.479-0.351-0.898-0.775-1.128c-1.412-0.761-2.982-2.263-4.677-4.471c1.919-3.139,3.675-6.646,5.35-10.685    C86.625,9.965,86.404,9.213,85.823,8.81z M58.593,40.776c-0.074,3.933-3.295,7.109-7.246,7.109H36.291v40.191    c0,1.787-1.454,3.24-3.24,3.24h-8.02c-1.787,0-3.24-1.453-3.24-3.24v-18.53h-2.02c-1.787,0-3.24-1.453-3.24-3.24v-16.82    c0-4.803,3.907-8.71,8.71-8.71H58.593z M77.923,20.574c-0.33,0.52-0.309,1.188,0.053,1.686c1.556,2.142,3.029,3.77,4.46,4.925    c-4.034,2.597-8.083,0.704-12.689-1.45c-3.09-1.445-6.415-3.001-9.827-3.001c-1.707,0-3.436,0.39-5.166,1.376V10.716    c4.384-3.682,8.724-1.651,13.722,0.686c4.085,1.911,8.584,4.015,13.148,2.46C80.449,16.305,79.225,18.525,77.923,20.574z"/><path d="M40.341,23.988c0-6.23-5.069-11.299-11.299-11.299c-6.23,0-11.299,5.069-11.299,11.299c0,6.23,5.069,11.299,11.299,11.299    C35.272,35.287,40.341,30.218,40.341,23.988z M20.743,23.988c0-4.576,3.723-8.299,8.299-8.299s8.299,3.723,8.299,8.299    s-3.723,8.299-8.299,8.299S20.743,28.565,20.743,23.988z"/></g></g><g><g><path d="M82.781,54.177h-0.009c-0.71,0-1.308,0.503-1.461,1.197c-1.743,7.888-6.363,14.706-12.704,19.29    c-0.596,0.431-0.813,1.214-0.494,1.875l0,0c0.408,0.845,1.48,1.106,2.24,0.556c6.933-5.009,11.987-12.458,13.891-21.081    C84.451,55.073,83.744,54.177,82.781,54.177z"/><path d="M66.916,20.047c0.997-0.577,1.005-2.033,0-2.596c-5.11-2.866-10.996-4.504-17.26-4.504c-6.116,0-11.87,1.564-16.894,4.305    c-1.017,0.555-1.016,2.022-0.013,2.602l0.01,0.006c0.453,0.262,1.006,0.26,1.466,0.01c4.592-2.497,9.846-3.923,15.43-3.923    c5.722,0,11.099,1.494,15.77,4.107c0.463,0.259,1.023,0.264,1.481-0.001L66.916,20.047z"/><path d="M16.543,54.177h-0.01c-0.964,0-1.67,0.898-1.462,1.839c1.943,8.798,7.165,16.375,14.316,21.383    c0.752,0.527,1.797,0.279,2.212-0.54l0.003-0.005c0.342-0.673,0.119-1.482-0.5-1.915c-6.543-4.583-11.319-11.516-13.098-19.565    C17.849,54.68,17.252,54.177,16.543,54.177z"/><path d="M60.073,63.395c0-5.555-4.519-10.074-10.074-10.074S39.926,57.84,39.926,63.395S44.445,73.469,50,73.469    S60.073,68.95,60.073,63.395z M42.926,63.395c0-3.9,3.173-7.074,7.074-7.074s7.074,3.173,7.074,7.074S53.9,70.469,50,70.469    S42.926,67.295,42.926,63.395z"/><path d="M62.027,85.82c0.103,0.701,0.679,1.234,1.388,1.234h0.202h0c0.831,0,1.507-0.722,1.396-1.545    c-0.756-5.571-5.544-9.878-11.32-9.878h-7.387c-5.775,0-10.563,4.308-11.319,9.878c-0.112,0.823,0.565,1.545,1.396,1.545l0,0    h0.202c0.709,0,1.285-0.533,1.388-1.234c0.599-4.062,4.108-7.189,8.333-7.189h7.387C57.919,78.63,61.428,81.758,62.027,85.82z"/><path d="M30.527,27.137c0-5.555-4.519-10.074-10.074-10.074s-10.074,4.519-10.074,10.074S14.898,37.21,20.453,37.21    S30.527,32.691,30.527,27.137z M13.379,27.137c0-3.9,3.173-7.074,7.074-7.074s7.074,3.173,7.074,7.074s-3.173,7.074-7.074,7.074    S13.379,31.037,13.379,27.137z"/><path d="M5.44,49.251c-0.112,0.823,0.565,1.545,1.396,1.545h0h0.202c0.709,0,1.285-0.533,1.388-1.234    c0.599-4.062,4.108-7.189,8.333-7.189h7.387c4.226,0,7.735,3.128,8.334,7.189c0.103,0.701,0.679,1.234,1.388,1.234h0.202h0    c0.831,0,1.508-0.722,1.396-1.545c-0.756-5.571-5.544-9.878-11.32-9.878H16.76C10.985,39.373,6.197,43.68,5.44,49.251z"/><path d="M89.62,27.137c0-5.555-4.519-10.074-10.074-10.074s-10.074,4.519-10.074,10.074S73.992,37.21,79.547,37.21    S89.62,32.691,89.62,27.137z M72.473,27.137c0-3.9,3.173-7.074,7.074-7.074s7.074,3.173,7.074,7.074s-3.173,7.074-7.074,7.074    S72.473,31.037,72.473,27.137z"/><path d="M93.164,50.796L93.164,50.796c0.831,0,1.508-0.722,1.396-1.545c-0.757-5.571-5.544-9.878-11.32-9.878h-7.387    c-5.775,0-10.563,4.307-11.32,9.878c-0.112,0.824,0.565,1.545,1.396,1.545h0h0.201c0.709,0,1.285-0.533,1.389-1.234    c0.599-4.062,4.108-7.189,8.334-7.189h7.387c4.226,0,7.735,3.128,8.334,7.189c0.103,0.701,0.679,1.234,1.389,1.234H93.164z"/></g></g></svg>