<svg xmlns="http://www.w3.org/2000/svg" xmlns:xlink="http://www.w3.org/1999/xlink" xml:space="preserve" version="1.1" style="shape-rendering:geometricPrecision;text-rendering:geometricPrecision;image-rendering:optimizeQuality;" viewBox="0 0 235 178.75" x="0px" y="0px" fill-rule="evenodd" clip-rule="evenodd"><defs><style type="text/css" alt = "Created by kareemovic from the Noun Project">
   
    .fil0 {fill:#eb5}
   
  </style></defs><g><path class="fil0" d="M118 118c31,-34 85,-34 117,0 -32,33 -86,33 -117,0zm0 0c10,-45 57,-72 101,-59 -11,45 -57,72 -101,59zm0 0c-13,-45 13,-91 58,-102 13,44 -14,91 -58,102zm0 0c-34,-32 -34,-86 0,-118 33,32 33,86 0,118zm0 0c-45,-11 -72,-58 -59,-102 45,11 72,57 59,102zm0 0c-45,13 -91,-14 -102,-59 44,-13 91,14 102,59zm0 0c-32,33 -86,33 -118,0 32,-34 86,-34 118,0z"/></g></svg>