<?xml version="1.0" encoding="UTF-8" standalone="no"?>
<svg
   xmlns:dc="http://purl.org/dc/elements/1.1/"
   xmlns:cc="http://creativecommons.org/ns#"
   xmlns:rdf="http://www.w3.org/1999/02/22-rdf-syntax-ns#"
   xmlns:svg="http://www.w3.org/2000/svg"
   xmlns="http://www.w3.org/2000/svg"
   xmlns:sodipodi="http://sodipodi.sourceforge.net/DTD/sodipodi-0.dtd"
   xmlns:inkscape="http://www.inkscape.org/namespaces/inkscape"
   version="1.0"
   width="935.800832pt"
   height="564.756966pt"
   viewBox="0 0 935.800832 564.756966"
   preserveAspectRatio="xMidYMid meet"
   id="svg32"
   sodipodi:docname="Lotus Flower 329.svg"
   inkscape:version="0.92.1 r15371">
  <defs
     id="defs36" />
  <sodipodi:namedview
     pagecolor="#ffffff"
     bordercolor="#666666"
     borderopacity="1"
     objecttolerance="10"
     gridtolerance="10"
     guidetolerance="10"
     inkscape:pageopacity="0"
     inkscape:pageshadow="2"
     inkscape:window-width="640"
     inkscape:window-height="480"
     id="namedview34"
     showgrid="false"
     inkscape:zoom="0.5425834"
     inkscape:cx="623.86723"
     inkscape:cy="376.50464"
     inkscape:current-layer="svg32" />
  <metadata
     id="metadata2">
Created by potrace 1.15, written by Peter Selinger 2001-2017
<rdf:RDF>
  <cc:Work
     rdf:about="">
    <dc:format>image/svg+xml</dc:format>
    <dc:type
       rdf:resource="http://purl.org/dc/dcmitype/StillImage" />
    <dc:title></dc:title>
  </cc:Work>
</rdf:RDF>
</metadata>
  <g
     transform="translate(35.918019,528.960000) scale(0.024000,-0.024000)"
     fill="#000000"
     stroke="none"
     id="g30">
    <path
       d="m 12690,20483 c -496.397,-426.661 -868.651,-976.769 -1230.625,-1517.125 -693.821,-1096.21 -1199.752,-2324.17 -1404.828,-3608.366 -133.4185,-1041.359 -46.733,-2140.024 427.672,-3090.368 394.029,-877.072 916.646,-1704.374 1615.738,-2371.0003 397.362,-384.5953 815.127,-755.097 1276.141,-1061.6192 134.874,-131.7573 249.227,-59.6252 102.273,89.0879 -350.591,421.6737 -672.864,864.7689 -971.66,1324.5496 -514.12,732.26 -1097.204,1442.567 -1368.028,2310.552 -364.316,1040.886 -282.289,2196.558 113.005,3215.523 397.277,1109.258 1086.487,2100.327 1939.312,2907.766 277.103,53.309 511.623,-249.293 767.183,-343.831 310.074,-172.809 615.771,-368.013 950.723,-485.966 C 14337.915,18770.146 13575.213,20187.776 12690,20483 Z"
       id="path4"
       inkscape:connector-curvature="0"
       sodipodi:nodetypes="cccccccccccccc" />
    <path
       d="m 23249,20441 c -792.771,-330.591 -1743.938,-1828.941 -1836.875,-2567.125 520.264,322.322 1041.612,653.394 1602.953,898.984 330.109,-45.252 501.901,-437.033 715.797,-667.578 481.169,-680.499 898.977,-1411.627 1205.01,-2187.564 271.454,-687.454 316.934,-1449.271 169.313,-2170.641 -198.334,-1273.172 -808.157,-2443.708 -1577.62,-3463.42 C 23147.03,9759.963 22735.622,9259.0254 22360,8732 c 236.472,-1.2328 436.798,247.1918 649.512,361.0315 1464.042,1031.6405 2603.473,2560.6435 3052.949,4304.0425 283.607,1107.594 120.235,2270.707 -161.211,3360.426 -194.079,736.195 -942.421,2725.905 -2652.25,3683.5 z"
       id="path6"
       inkscape:connector-curvature="0"
       sodipodi:nodetypes="cccccccccccc" />
    <path
       d="m 18186.5,19385 c -1072.379,-826.56 -2241.844,-1624.338 -3186.72,-2600.157 -591.959,-648.114 -1087.295,-1381.755 -1514.888,-2146.69 -437.133,-788.941 -525.828,-1720.309 -428.98,-2604.196 56.67,-606.771 127.137,-1231.78 428.088,-1773.957 326.381,-624.1258 641.326,-1258.8173 1072,-1820 412.088,-586.934 812.699,-1189.0881 1340.977,-1680.9668 266.255,-258.0274 548.254,-504.0321 861.023,-704.0332 -776.239,862.4913 -1483.419,1815.0591 -1913.886,2901.4978 -534.421,1338.8992 -657.932,2882.1352 -143.739,4247.2052 432.15,1185.558 1291,2152.143 2219.625,2980.297 400.308,350.781 789.215,716.122 1199.625,1054.5 270.765,73.691 431.396,-309.492 638.271,-440.894 1085.558,-1072.069 2137.86,-2255.171 2664.229,-3712.106 225.018,-603.801 250.283,-1254.332 211.952,-1890.724 -37.182,-1025.442 -310.367,-2042.9762 -813.851,-2938.7872 -287.089,-569.2102 -562.132,-1156.9761 -995.949,-1632.6099 -103.552,-118.1775 -180.256,-279.2569 -3.652,-103.1289 803.845,658.3472 1413.882,1515.2776 1988.002,2371.9251 441.379,705.5258 885.227,1424.0539 1153.275,2216.2959 421.825,1275.973 287.575,2712.598 -334.363,3900.811 C 21596.144,16720.152 19920.935,18618.02 18186.5,19385 Z"
       id="path8"
       inkscape:connector-curvature="0"
       sodipodi:nodetypes="cccccccccccccccccccccc" />
    <path
       d="m 5268,17555 c -224.932,-191.427 -133.9714,-562.583 -187.5444,-834.121 -76.5268,-1483.385 414.1788,-2972.447 1271.6256,-4175.999 763.9947,-1060.508 1883.2676,-1808.63 3080.1043,-2300.755 536.9643,-210.968 1073.4575,-435.8533 1635.7055,-570.1406 284.275,-33.2174 -345.017,312.3347 -259.016,251.2656 -1256.2523,770.486 -2556.508,1568.507 -3441.509,2777.432 C 6583.5732,13748.42 6154.1881,15055.237 6165,16362 c 211.7131,117.154 476.3918,-44.403 705.8965,-58.887 788.9537,-150.456 1529.9434,-468.154 2266.7754,-776.66 -605.7677,892.827 -2078.8661,1575.635 -2941.5879,1862.77 -301.9543,75.483 -615.0467,184.953 -928.084,165.777 z"
       id="path10"
       inkscape:connector-curvature="0"
       sodipodi:nodetypes="cccccccccccc" />
    <path
       d="m 31045,17526 c -980.723,-331.316 -1918.063,-777.965 -2846.389,-1232.906 -280.177,-154.246 -558.954,-328.811 -768.611,-574.094 291.659,13.747 573.876,216.41 873.477,267.123 546.42,154.546 1122.138,268.086 1691.318,205.498 225.165,-98.91 80.661,-436.017 104.796,-636.83 -99.439,-1383.344 -752.16,-2711.756 -1777.789,-3644.271 -764.388,-703.951 -1668.367,-1229.172 -2540.786,-1784.411 -335.089,-182.34 -693.54,-325.3394 -1012.073,-535.7145 294.917,61.5457 608.413,198.4987 907.554,297.0918 1623.987,602.6347 3210.857,1451.1577 4373.997,2761.9027 877.822,977.271 1387.445,2283.696 1354.256,3601.111 4.466,407.886 -28.451,817.473 -109.812,1217.219 -23.469,123.565 -167.753,75.576 -249.938,58.281 z"
       id="path12"
       inkscape:connector-curvature="0" />
    <path
       d="m 32778,14613 c -596.772,-909.04 -1266.447,-1773.971 -2021,-2558 -648.563,-623.594 -1418.883,-1111.977 -2228.312,-1498.531 -123.523,-34.814 -663.048,-335.746 -287.813,-322.344 701.022,-2.002 1403.373,-23.129 2103.664,8.988 802.561,72.047 1622.931,394.511 2140.705,1032.883 423.534,493.316 639.827,3290.96 292.756,3337.004 z"
       id="path14"
       inkscape:connector-curvature="0"
       sodipodi:nodetypes="ccccccc" />
    <path
       d="m 3650,14527 c -196.5398,-830.782 -294.8433,-1990.155 9.8167,-2656.314 326.074,-746.594 1055.1966,-1264.058 1846.9108,-1409.764 779.0491,-171.368 1581.8378,-196.01 2376.2725,-171.922 18.7714,174.792 -427.8236,244.916 -573.0781,389.367 C 5999.8221,11717.334 4852.735,13379.254 3650,14527 Z"
       id="path16"
       inkscape:connector-curvature="0"
       sodipodi:nodetypes="cccccc" />
    <path
       d="m 34030,11683 c -645.94,-793.743 -1521.999,-1401.759 -2484.312,-1751.375 -1136.134,-381.787 -2349.534,-382.5617 -3532.468,-475.0853 -1112.737,-65.367 -2228.059,-190.4029 -3310.156,-464.8317 -745.583,-200.3675 -1415.158,-597.5636 -2092.63,-955.8148 -763.718,-422.1243 -1467.084,-954.7766 -2052.173,-1604.3121 -234.126,-259.3806 -458.991,-528.7813 -666.136,-809.8311 185.91,-31.8911 435.12,224.4763 640.469,304.8113 1345.059,771.369 2877.125,1216.4868 4428.681,1255.9778 1738.949,65.1192 3493.14,242.571 5150.161,802.3357 C 30759.181,8202.8831 31380.382,8500.4762 31949,8880 31743.403,7866.7017 30799.732,6681.2096 30191.157,5989.3198 29751.85,5455.0345 29173.403,5062.7144 28567.373,4741.072 27647.456,4238.8196 26615.925,3960.7348 25572.051,3891.9004 25319.94,3841.854 24573.697,3668.0052 24748,3768 c 744.133,-210.8382 1532.705,-223.2443 2302.317,-196.9695 1730.119,58.6678 3381.822,874.1244 4587.64,2097.1511 1024.531,1034.3726 1813.465,2320.4883 2178.168,3736.209 189.575,714.6814 283.757,1453.0404 314.375,2190.9844 4.838,46.555 -51.345,109.715 -100.5,87.625 z"
       id="path18"
       inkscape:connector-curvature="0"
       sodipodi:nodetypes="cccccccccccccccccccc" />
    <path
       d="M 2406,11336 C 1966.0046,7771.8556 4855.8869,4445.4074 7963.4609,3772.7598 9295.9049,3481.5771 10689.703,3584.1183 11999,3940 c -977.378,14.6971 -1964.544,33.0352 -2923.4861,243.5681 -1646.941,397.4149 -3140.3468,1424.0535 -4065.467,2848.2757 -407.0443,614.867 -874.637,1207.8311 -1133.3125,1904.0312 1820.75,-903.5138 3416.4399,-1345.9653 5285.919,-1509.1806 1086.0066,-80.707 2177.5986,-145.7297 3250.0456,-343.4156 C 13521.937,6883.3635 14557.322,6396.8912 15520,5825 c 233.237,-121.9327 428.497,-352.9658 688.047,-398.4688 -317.773,436.0711 -704.941,822.5678 -1069.755,1221.3743 -704.825,735.4301 -1475.445,1432.7869 -2383.683,1907.0007 C 12044.299,8876.7848 11266.212,9004.8589 10504.875,9149 9286.8074,9368.5322 8058.3197,9530.8368 6822.3789,9604.2422 4571.7872,9873.0616 3817.1064,10430.497 2406,11336 Z"
       id="path20"
       inkscape:connector-curvature="0"
       sodipodi:nodetypes="ccccccccccccccc" />
    <path
       d="m 33587,6443 c 237.854,-405.2109 1163.936,-800.9839 1090.25,-1117.5 C 34224.896,4844.3724 33642.682,4518.3549 33093.047,4163.1438 32446.06,3776.4124 31698.558,3616.7356 30974.281,3440.9409 30097.696,3236.7001 29197.44,3189.9637 28303,3124 c -142.831,-126.8926 674.263,-290.6025 542.94,-232.4807 938.461,-214.2584 1907.797,-208.8668 2864.06,-167.5193 1149.042,77.1912 2286.707,521.013 3118.625,1329.375 421.01,399.0562 799.966,843.525 1150.375,1304.625 -47.846,263.7458 -484.981,280.1973 -690.92,437.9851 -538.284,253.1024 -1076.214,536.5146 -1663.494,654.9993 l -25.101,-1.1739 z"
       id="path22"
       inkscape:connector-curvature="0"
       sodipodi:nodetypes="ccccccccccccc" />
    <path
       d="M 54,5486.125 C 176.85643,4567.2164 1617.2665,3815.7735 2268.7851,3433.3921 3275.3336,2880.7769 4450.0127,2722.7605 5584.4177,2757.043 c 658.5953,16.8109 1317.2694,96.2016 1962.7796,226.455 148.6133,29.6865 288.8318,153.4344 56.0527,134.127 -1037.1495,63.1974 -2061.9747,258.5007 -3072.1956,494.1584 C 3390.39,3909.7389 2343.4727,4506.5708 1433,5247 c 41.4498,361.7791 1004.8173,793.4432 974.0312,1021.7344 C 1736.8542,6246.5456 571.10793,5751.6044 54,5486.125 Z"
       id="path24"
       inkscape:connector-curvature="0"
       sodipodi:nodetypes="ccccccccc" />
    <path
       d="m 19240,4868 c 143.664,-231.8174 403.859,-385.735 605.375,-572.25 C 21044.2,3332.845 22423.269,2529.1626 23955,2260 c 34.985,-615.335 -1763.57,-624.2131 -2357.625,-594.875 -758.071,53.6479 -1469.274,436.7029 -1969.115,1003.4863 -410.018,425.049 -853.571,839.5952 -1101.666,1386.3262 -266.764,313.0043 -312.654,-608.5018 -264.172,-442.3574 -71.585,-738.2195 276.863,-1449.2651 728.596,-2010.6316 681.2,-806.45441 1622.895,-1451.62741 2696.587,-1550.116469 750.275,-47.0350696 1522.891,-99.312646 2248.87,141.357419 1410.684,493.33343 2225.683,1509.38225 2957.275,2627.56055 -1402.54,-29.589 -3642.736,459.0532 -4941.125,984 C 21048.476,4162.1523 20175.173,4600.0235 19249,4900 Z"
       id="path26"
       inkscape:connector-curvature="0"
       sodipodi:nodetypes="cccccccccccccc" />
    <path
       d="M 16735,4815 C 15285.76,4139.4372 13787.653,3551.3774 12232.464,3170.4578 11603.544,2962.2244 9032.0298,2930.3409 9096.6934,2704.7109 9635.9466,1410.4299 10441.042,748.59351 11657.655,292.01225 12471.722,-3.9153669 13369.156,-31.358981 14206.27,183.45703 c 819.688,158.73705 1587.953,565.89721 2162.105,1174.41797 441.183,448.934 846.391,954.5386 1094.96,1537.1584 153.411,388.4058 173.515,821.6674 106.665,1229.9666 -415.536,-546.8605 -805.088,-1120.8565 -1313.129,-1589.7168 -671.264,-622.0764 -1523.783,-1168.2333 -2473.215,-1138.627 -790.4,31.8585 -1538.317,389.8608 -2155.828,868.2657 635.796,198.2351 1325.875,220.4233 2460.586,862.2031 780.32,425.8098 1555.178,865.5714 2297.586,1354.875 50.036,26.2742 618.421,445.8254 349,333 z"
       id="path28"
       inkscape:connector-curvature="0"
       sodipodi:nodetypes="cccccccccccccc" />
  </g>
</svg>
